<?xml version="1.0" standalone="no"?>
<!DOCTYPE svg PUBLIC "-//W3C//DTD SVG 20010904//EN"
 "http://www.w3.org/TR/2001/REC-SVG-20010904/DTD/svg10.dtd">
<svg version="1.0" xmlns="http://www.w3.org/2000/svg"
 width="512.000000pt" height="512.000000pt" viewBox="0 0 512.000000 512.000000"
 preserveAspectRatio="xMidYMid meet">
<metadata>
Created by potrace 1.14, written by Peter Selinger 2001-2017
</metadata>
<g transform="translate(0.000000,512.000000) scale(0.100000,-0.100000)"
fill="#000000" stroke="none">
<path d="M2427 4904 c-1 -1 -39 -5 -84 -8 -46 -4 -89 -9 -95 -11 -7 -2 -37 -7
-66 -10 -30 -3 -57 -7 -60 -9 -4 -2 -23 -7 -42 -10 -19 -3 -53 -11 -75 -16
-22 -6 -51 -13 -64 -16 -13 -3 -65 -19 -115 -36 -240 -81 -481 -206 -658 -341
l-37 -29 150 -178 c83 -98 156 -184 164 -190 11 -9 31 1 96 45 98 67 313 174
424 210 94 31 259 71 330 80 115 14 142 17 183 17 32 0 42 4 43 17 1 20 1 427
0 462 -1 23 -5 25 -46 25 -25 1 -46 0 -48 -2z"/>
<path d="M2683 4902 c-6 -5 -10 -99 -10 -254 0 -245 0 -248 21 -249 37 -1 178
-20 246 -34 19 -4 145 -38 215 -59 144 -43 429 -198 532 -289 l23 -20 21 24
c11 13 37 44 57 68 21 24 79 94 130 155 52 61 98 119 103 128 8 15 -4 27 -67
74 -346 256 -758 414 -1174 450 -36 3 -70 7 -76 9 -6 2 -15 0 -21 -3z"/>
<path d="M900 4212 c-164 -166 -252 -279 -361 -462 -52 -89 -149 -281 -149
-297 0 -3 -6 -19 -14 -36 -22 -49 -62 -172 -89 -275 l-25 -93 25 -10 c13 -5
33 -9 43 -9 10 0 49 -6 87 -14 37 -8 88 -17 113 -21 25 -3 52 -8 60 -10 8 -2
29 -6 45 -9 77 -13 99 -17 106 -21 12 -8 24 18 43 95 25 99 73 226 130 336 46
90 85 160 99 179 4 5 35 48 69 95 34 46 105 128 156 182 68 71 92 101 85 110
-12 16 -154 187 -240 291 -36 42 -68 77 -71 77 -4 0 -54 -49 -112 -108z"/>
<path d="M4104 4233 c-22 -27 -47 -57 -56 -68 -9 -11 -56 -67 -104 -125 -48
-58 -94 -111 -101 -119 -18 -18 -18 -19 57 -98 89 -93 176 -209 261 -348 64
-104 141 -292 183 -450 19 -67 25 -80 42 -78 24 2 80 11 119 18 63 12 81 15
115 21 105 17 231 42 235 46 12 11 -94 368 -116 393 -5 5 -9 15 -9 22 0 41
-163 339 -259 472 -91 129 -298 361 -321 361 -4 0 -25 -21 -46 -47z"/>
<path d="M1344 3377 c-2 -7 -3 -87 -2 -177 l3 -165 338 -3 337 -2 0 -160 0
-160 -337 -2 -338 -3 0 -175 0 -175 338 -3 337 -2 0 -160 0 -160 -337 -2 -338
-3 0 -175 0 -175 515 0 515 0 0 855 0 855 -513 3 c-413 2 -514 0 -518 -11z"/>
<path d="M2740 2530 l0 -860 515 0 515 0 0 860 0 860 -515 0 -515 0 0 -860z
m357 -263 c-1 -139 -2 -22 -2 258 0 281 1 394 2 252 2 -142 2 -372 0 -510z
m236 756 c-40 -2 -107 -2 -150 0 -43 1 -10 3 72 3 83 0 118 -2 78 -3z m84
-756 c-1 -139 -2 -22 -2 258 0 281 1 394 2 252 2 -142 2 -372 0 -510z m-17
253 l0 -490 -145 0 -145 0 0 490 0 490 145 0 145 0 0 -490z"/>
<path d="M239 2888 c-21 -81 -30 -357 -16 -538 14 -177 81 -475 136 -605 5
-11 19 -45 31 -75 12 -30 42 -96 67 -147 l45 -91 47 26 c26 15 124 71 218 125
l171 98 -48 102 c-139 295 -194 607 -166 945 7 75 6 82 -11 83 -10 0 -29 3
-43 5 -60 11 -188 34 -215 39 -143 27 -214 38 -216 33z"/>
<path d="M4849 2876 c-2 -2 -22 -7 -44 -10 -64 -10 -78 -13 -110 -19 -16 -4
-45 -9 -62 -12 -46 -7 -84 -14 -113 -20 -14 -3 -43 -8 -65 -11 -69 -9 -68 -6
-59 -87 12 -117 6 -343 -10 -419 -3 -13 -7 -36 -10 -53 -16 -114 -79 -318
-137 -444 -22 -46 -38 -85 -37 -87 4 -3 165 -96 228 -131 25 -14 80 -46 123
-70 43 -25 80 -44 82 -41 10 9 76 152 108 230 81 200 130 410 153 648 14 140
5 493 -13 523 -4 7 -27 10 -34 3z"/>
<path d="M4103 1553 c-83 -132 -283 -350 -408 -444 -95 -73 -223 -153 -317
-200 l-86 -44 42 -115 c23 -63 62 -168 85 -232 24 -65 47 -118 52 -118 15 0
182 83 269 134 299 175 575 434 764 716 51 76 54 84 39 95 -10 6 -69 40 -131
76 -62 35 -121 69 -130 74 -57 33 -151 85 -156 85 -3 0 -13 -12 -23 -27z"/>
<path d="M975 1529 c-22 -11 -50 -27 -62 -35 -12 -8 -42 -25 -65 -38 -24 -13
-94 -53 -156 -89 l-112 -65 37 -53 c117 -173 343 -418 478 -519 33 -25 62 -48
65 -51 11 -13 168 -115 244 -158 89 -51 270 -137 299 -143 15 -2 26 16 58 97
21 55 39 103 39 107 0 4 5 19 12 35 6 15 12 30 13 33 1 3 4 12 8 20 28 75 57
157 57 165 0 6 -26 20 -57 32 -90 35 -265 136 -366 211 -160 119 -289 252
-432 446 l-20 27 -40 -22z"/>
<path d="M3110 801 c-19 -11 -221 -58 -280 -65 -25 -3 -65 -8 -90 -11 -60 -8
-259 -8 -340 -1 -107 10 -159 19 -279 47 -46 11 -84 19 -86 17 -15 -20 -165
-462 -158 -468 9 -10 125 -41 217 -60 64 -13 75 -15 151 -24 28 -4 73 -9 100
-13 103 -13 498 -4 525 12 3 1 30 6 61 9 108 13 390 88 388 104 0 4 -37 108
-82 232 -82 223 -92 241 -127 221z"/>
</g>
</svg>
